<svg xmlns="http://www.w3.org/2000/svg" width="1200" height="760" viewBox="0 0 1200 760"><rect x="0" y="0" width="1200" height="760" fill="#ffffff" /><rect x="12" y="12" width="1176" height="736" fill="none" stroke="#edf2f7" stroke-width="1" rx="14" ry="14" /><text x="600.00" y="30.00" text-anchor="middle" font-size="24" font-family="Segoe UI, Tahoma, sans-serif" font-weight="700" fill="#102a43">number_of_microservices by project and configuration</text><rect x="90" y="48" width="14" height="14" fill="#1f77b4" rx="2" ry="2" /><text x="110.00" y="60.00" text-anchor="start" font-size="12" font-family="Segoe UI, Tahoma, sans-serif" font-weight="400" fill="#334e68">anthropic | claude-opus-4-8 | few_shot</text><rect x="378" y="48" width="14" height="14" fill="#ff7f0e" rx="2" ry="2" /><text x="398.00" y="60.00" text-anchor="start" font-size="12" font-family="Segoe UI, Tahoma, sans-serif" font-weight="400" fill="#334e68">anthropic | claude-opus-4-8 | zero_shot</text><rect x="673" y="48" width="14" height="14" fill="#2ca02c" rx="2" ry="2" /><text x="693.00" y="60.00" text-anchor="start" font-size="12" font-family="Segoe UI, Tahoma, sans-serif" font-weight="400" fill="#334e68">deepseek | deepseek-chat | few_shot</text><rect x="90" y="70" width="14" height="14" fill="#d62728" rx="2" ry="2" /><text x="110.00" y="82.00" text-anchor="start" font-size="12" font-family="Segoe UI, Tahoma, sans-serif" font-weight="400" fill="#334e68">deepseek | deepseek-chat | zero_shot</text><rect x="364" y="70" width="14" height="14" fill="#9467bd" rx="2" ry="2" /><text x="384.00" y="82.00" text-anchor="start" font-size="12" font-family="Segoe UI, Tahoma, sans-serif" font-weight="400" fill="#334e68">openai | gpt-5.5-2026-04-23 | few_shot</text><rect x="652" y="70" width="14" height="14" fill="#8c564b" rx="2" ry="2" /><text x="672.00" y="82.00" text-anchor="start" font-size="12" font-family="Segoe UI, Tahoma, sans-serif" font-weight="400" fill="#334e68">openai | gpt-5.5-2026-04-23 | zero_shot</text><line x1="90" y1="540.00" x2="1160" y2="540.00" stroke="#d9d9d9" stroke-width="1" /><text x="80.00" y="545.00" text-anchor="end" font-size="12" font-family="Segoe UI, Tahoma, sans-serif" font-weight="400" fill="#444444">0</text><line x1="90" y1="456.00" x2="1160" y2="456.00" stroke="#d9d9d9" stroke-width="1" /><text x="80.00" y="461.00" text-anchor="end" font-size="12" font-family="Segoe UI, Tahoma, sans-serif" font-weight="400" fill="#444444">4</text><line x1="90" y1="372.00" x2="1160" y2="372.00" stroke="#d9d9d9" stroke-width="1" /><text x="80.00" y="377.00" text-anchor="end" font-size="12" font-family="Segoe UI, Tahoma, sans-serif" font-weight="400" fill="#444444">8</text><line x1="90" y1="288.00" x2="1160" y2="288.00" stroke="#d9d9d9" stroke-width="1" /><text x="80.00" y="293.00" text-anchor="end" font-size="12" font-family="Segoe UI, Tahoma, sans-serif" font-weight="400" fill="#444444">12</text><line x1="90" y1="204.00" x2="1160" y2="204.00" stroke="#d9d9d9" stroke-width="1" /><text x="80.00" y="209.00" text-anchor="end" font-size="12" font-family="Segoe UI, Tahoma, sans-serif" font-weight="400" fill="#444444">16</text><line x1="90" y1="120.00" x2="1160" y2="120.00" stroke="#d9d9d9" stroke-width="1" /><text x="80.00" y="125.00" text-anchor="end" font-size="12" font-family="Segoe UI, Tahoma, sans-serif" font-weight="400" fill="#444444">20</text><line x1="90" y1="540" x2="1160" y2="540" stroke="#444444" stroke-width="1.5" /><line x1="90" y1="120" x2="90" y2="540" stroke="#444444" stroke-width="1.5" /><rect x="106.72" y="456.00" width="14.72" height="84.00" fill="#1f77b4" rx="2" ry="2" /><text x="115.08" y="450.00" text-anchor="middle" font-size="10" font-family="Segoe UI, Tahoma, sans-serif" font-weight="400" fill="#333333">4</text><rect x="123.44" y="456.00" width="14.72" height="84.00" fill="#ff7f0e" rx="2" ry="2" /><text x="131.80" y="450.00" text-anchor="middle" font-size="10" font-family="Segoe UI, Tahoma, sans-serif" font-weight="400" fill="#333333">4</text><rect x="140.16" y="477.00" width="14.72" height="63.00" fill="#2ca02c" rx="2" ry="2" /><text x="148.52" y="471.00" text-anchor="middle" font-size="10" font-family="Segoe UI, Tahoma, sans-serif" font-weight="400" fill="#333333">3</text><rect x="156.88" y="456.00" width="14.72" height="84.00" fill="#d62728" rx="2" ry="2" /><text x="165.23" y="450.00" text-anchor="middle" font-size="10" font-family="Segoe UI, Tahoma, sans-serif" font-weight="400" fill="#333333">4</text><rect x="173.59" y="456.00" width="14.72" height="84.00" fill="#9467bd" rx="2" ry="2" /><text x="181.95" y="450.00" text-anchor="middle" font-size="10" font-family="Segoe UI, Tahoma, sans-serif" font-weight="400" fill="#333333">4</text><rect x="190.31" y="456.00" width="14.72" height="84.00" fill="#8c564b" rx="2" ry="2" /><text x="198.67" y="450.00" text-anchor="middle" font-size="10" font-family="Segoe UI, Tahoma, sans-serif" font-weight="400" fill="#333333">4</text><g transform="translate(156.88,560.00) rotate(45)"><text x="0.00" y="0.00" text-anchor="start" font-size="12" font-family="Segoe UI, Tahoma, sans-serif" font-weight="400" fill="#333333">7ep</text></g><rect x="240.47" y="456.00" width="14.72" height="84.00" fill="#1f77b4" rx="2" ry="2" /><text x="248.83" y="450.00" text-anchor="middle" font-size="10" font-family="Segoe UI, Tahoma, sans-serif" font-weight="400" fill="#333333">4</text><rect x="257.19" y="456.00" width="14.72" height="84.00" fill="#ff7f0e" rx="2" ry="2" /><text x="265.55" y="450.00" text-anchor="middle" font-size="10" font-family="Segoe UI, Tahoma, sans-serif" font-weight="400" fill="#333333">4</text><rect x="273.91" y="477.00" width="14.72" height="63.00" fill="#2ca02c" rx="2" ry="2" /><text x="282.27" y="471.00" text-anchor="middle" font-size="10" font-family="Segoe UI, Tahoma, sans-serif" font-weight="400" fill="#333333">3</text><rect x="290.62" y="477.00" width="14.72" height="63.00" fill="#d62728" rx="2" ry="2" /><text x="298.98" y="471.00" text-anchor="middle" font-size="10" font-family="Segoe UI, Tahoma, sans-serif" font-weight="400" fill="#333333">3</text><rect x="307.34" y="477.00" width="14.72" height="63.00" fill="#9467bd" rx="2" ry="2" /><text x="315.70" y="471.00" text-anchor="middle" font-size="10" font-family="Segoe UI, Tahoma, sans-serif" font-weight="400" fill="#333333">3</text><rect x="324.06" y="477.00" width="14.72" height="63.00" fill="#8c564b" rx="2" ry="2" /><text x="332.42" y="471.00" text-anchor="middle" font-size="10" font-family="Segoe UI, Tahoma, sans-serif" font-weight="400" fill="#333333">3</text><g transform="translate(290.62,560.00) rotate(45)"><text x="0.00" y="0.00" text-anchor="start" font-size="12" font-family="Segoe UI, Tahoma, sans-serif" font-weight="400" fill="#333333">Jokul</text></g><rect x="374.22" y="330.00" width="14.72" height="210.00" fill="#1f77b4" rx="2" ry="2" /><text x="382.58" y="324.00" text-anchor="middle" font-size="10" font-family="Segoe UI, Tahoma, sans-serif" font-weight="400" fill="#333333">10</text><rect x="390.94" y="330.00" width="14.72" height="210.00" fill="#ff7f0e" rx="2" ry="2" /><text x="399.30" y="324.00" text-anchor="middle" font-size="10" font-family="Segoe UI, Tahoma, sans-serif" font-weight="400" fill="#333333">10</text><rect x="407.66" y="372.00" width="14.72" height="168.00" fill="#2ca02c" rx="2" ry="2" /><text x="416.02" y="366.00" text-anchor="middle" font-size="10" font-family="Segoe UI, Tahoma, sans-serif" font-weight="400" fill="#333333">8</text><rect x="424.38" y="288.00" width="14.72" height="252.00" fill="#d62728" rx="2" ry="2" /><text x="432.73" y="282.00" text-anchor="middle" font-size="10" font-family="Segoe UI, Tahoma, sans-serif" font-weight="400" fill="#333333">12</text><rect x="441.09" y="351.00" width="14.72" height="189.00" fill="#9467bd" rx="2" ry="2" /><text x="449.45" y="345.00" text-anchor="middle" font-size="10" font-family="Segoe UI, Tahoma, sans-serif" font-weight="400" fill="#333333">9</text><rect x="457.81" y="393.00" width="14.72" height="147.00" fill="#8c564b" rx="2" ry="2" /><text x="466.17" y="387.00" text-anchor="middle" font-size="10" font-family="Segoe UI, Tahoma, sans-serif" font-weight="400" fill="#333333">7</text><g transform="translate(424.38,560.00) rotate(45)"><text x="0.00" y="0.00" text-anchor="start" font-size="12" font-family="Segoe UI, Tahoma, sans-serif" font-weight="400" fill="#333333">TNTConcept</text></g><rect x="507.97" y="435.00" width="14.72" height="105.00" fill="#1f77b4" rx="2" ry="2" /><text x="516.33" y="429.00" text-anchor="middle" font-size="10" font-family="Segoe UI, Tahoma, sans-serif" font-weight="400" fill="#333333">5</text><rect x="524.69" y="435.00" width="14.72" height="105.00" fill="#ff7f0e" rx="2" ry="2" /><text x="533.05" y="429.00" text-anchor="middle" font-size="10" font-family="Segoe UI, Tahoma, sans-serif" font-weight="400" fill="#333333">5</text><rect x="541.41" y="456.00" width="14.72" height="84.00" fill="#2ca02c" rx="2" ry="2" /><text x="549.77" y="450.00" text-anchor="middle" font-size="10" font-family="Segoe UI, Tahoma, sans-serif" font-weight="400" fill="#333333">4</text><rect x="558.12" y="435.00" width="14.72" height="105.00" fill="#d62728" rx="2" ry="2" /><text x="566.48" y="429.00" text-anchor="middle" font-size="10" font-family="Segoe UI, Tahoma, sans-serif" font-weight="400" fill="#333333">5</text><rect x="574.84" y="435.00" width="14.72" height="105.00" fill="#9467bd" rx="2" ry="2" /><text x="583.20" y="429.00" text-anchor="middle" font-size="10" font-family="Segoe UI, Tahoma, sans-serif" font-weight="400" fill="#333333">5</text><rect x="591.56" y="435.00" width="14.72" height="105.00" fill="#8c564b" rx="2" ry="2" /><text x="599.92" y="429.00" text-anchor="middle" font-size="10" font-family="Segoe UI, Tahoma, sans-serif" font-weight="400" fill="#333333">5</text><g transform="translate(558.12,560.00) rotate(45)"><text x="0.00" y="0.00" text-anchor="start" font-size="12" font-family="Segoe UI, Tahoma, sans-serif" font-weight="400" fill="#333333">acmeair</text></g><rect x="641.72" y="414.00" width="14.72" height="126.00" fill="#1f77b4" rx="2" ry="2" /><text x="650.08" y="408.00" text-anchor="middle" font-size="10" font-family="Segoe UI, Tahoma, sans-serif" font-weight="400" fill="#333333">6</text><rect x="658.44" y="435.00" width="14.72" height="105.00" fill="#ff7f0e" rx="2" ry="2" /><text x="666.80" y="429.00" text-anchor="middle" font-size="10" font-family="Segoe UI, Tahoma, sans-serif" font-weight="400" fill="#333333">5</text><rect x="675.16" y="456.00" width="14.72" height="84.00" fill="#2ca02c" rx="2" ry="2" /><text x="683.52" y="450.00" text-anchor="middle" font-size="10" font-family="Segoe UI, Tahoma, sans-serif" font-weight="400" fill="#333333">4</text><rect x="691.88" y="414.00" width="14.72" height="126.00" fill="#d62728" rx="2" ry="2" /><text x="700.23" y="408.00" text-anchor="middle" font-size="10" font-family="Segoe UI, Tahoma, sans-serif" font-weight="400" fill="#333333">6</text><rect x="708.59" y="456.00" width="14.72" height="84.00" fill="#9467bd" rx="2" ry="2" /><text x="716.95" y="450.00" text-anchor="middle" font-size="10" font-family="Segoe UI, Tahoma, sans-serif" font-weight="400" fill="#333333">4</text><rect x="725.31" y="456.00" width="14.72" height="84.00" fill="#8c564b" rx="2" ry="2" /><text x="733.67" y="450.00" text-anchor="middle" font-size="10" font-family="Segoe UI, Tahoma, sans-serif" font-weight="400" fill="#333333">4</text><g transform="translate(691.88,560.00) rotate(45)"><text x="0.00" y="0.00" text-anchor="start" font-size="12" font-family="Segoe UI, Tahoma, sans-serif" font-weight="400" fill="#333333">cargo-tracker</text></g><rect x="775.47" y="414.00" width="14.72" height="126.00" fill="#1f77b4" rx="2" ry="2" /><text x="783.83" y="408.00" text-anchor="middle" font-size="10" font-family="Segoe UI, Tahoma, sans-serif" font-weight="400" fill="#333333">6</text><rect x="792.19" y="414.00" width="14.72" height="126.00" fill="#ff7f0e" rx="2" ry="2" /><text x="800.55" y="408.00" text-anchor="middle" font-size="10" font-family="Segoe UI, Tahoma, sans-serif" font-weight="400" fill="#333333">6</text><rect x="808.91" y="435.00" width="14.72" height="105.00" fill="#2ca02c" rx="2" ry="2" /><text x="817.27" y="429.00" text-anchor="middle" font-size="10" font-family="Segoe UI, Tahoma, sans-serif" font-weight="400" fill="#333333">5</text><rect x="825.62" y="435.00" width="14.72" height="105.00" fill="#d62728" rx="2" ry="2" /><text x="833.98" y="429.00" text-anchor="middle" font-size="10" font-family="Segoe UI, Tahoma, sans-serif" font-weight="400" fill="#333333">5</text><rect x="842.34" y="435.00" width="14.72" height="105.00" fill="#9467bd" rx="2" ry="2" /><text x="850.70" y="429.00" text-anchor="middle" font-size="10" font-family="Segoe UI, Tahoma, sans-serif" font-weight="400" fill="#333333">5</text><rect x="859.06" y="456.00" width="14.72" height="84.00" fill="#8c564b" rx="2" ry="2" /><text x="867.42" y="450.00" text-anchor="middle" font-size="10" font-family="Segoe UI, Tahoma, sans-serif" font-weight="400" fill="#333333">4</text><g transform="translate(825.62,560.00) rotate(45)"><text x="0.00" y="0.00" text-anchor="start" font-size="12" font-family="Segoe UI, Tahoma, sans-serif" font-weight="400" fill="#333333">daytrader7</text></g><rect x="909.22" y="435.00" width="14.72" height="105.00" fill="#1f77b4" rx="2" ry="2" /><text x="917.58" y="429.00" text-anchor="middle" font-size="10" font-family="Segoe UI, Tahoma, sans-serif" font-weight="400" fill="#333333">5</text><rect x="925.94" y="435.00" width="14.72" height="105.00" fill="#ff7f0e" rx="2" ry="2" /><text x="934.30" y="429.00" text-anchor="middle" font-size="10" font-family="Segoe UI, Tahoma, sans-serif" font-weight="400" fill="#333333">5</text><rect x="942.66" y="414.00" width="14.72" height="126.00" fill="#2ca02c" rx="2" ry="2" /><text x="951.02" y="408.00" text-anchor="middle" font-size="10" font-family="Segoe UI, Tahoma, sans-serif" font-weight="400" fill="#333333">6</text><rect x="959.38" y="435.00" width="14.72" height="105.00" fill="#d62728" rx="2" ry="2" /><text x="967.73" y="429.00" text-anchor="middle" font-size="10" font-family="Segoe UI, Tahoma, sans-serif" font-weight="400" fill="#333333">5</text><rect x="976.09" y="456.00" width="14.72" height="84.00" fill="#9467bd" rx="2" ry="2" /><text x="984.45" y="450.00" text-anchor="middle" font-size="10" font-family="Segoe UI, Tahoma, sans-serif" font-weight="400" fill="#333333">4</text><rect x="992.81" y="477.00" width="14.72" height="63.00" fill="#8c564b" rx="2" ry="2" /><text x="1001.17" y="471.00" text-anchor="middle" font-size="10" font-family="Segoe UI, Tahoma, sans-serif" font-weight="400" fill="#333333">3</text><g transform="translate(959.38,560.00) rotate(45)"><text x="0.00" y="0.00" text-anchor="start" font-size="12" font-family="Segoe UI, Tahoma, sans-serif" font-weight="400" fill="#333333">jpetstore</text></g><rect x="1042.97" y="456.00" width="14.72" height="84.00" fill="#1f77b4" rx="2" ry="2" /><text x="1051.33" y="450.00" text-anchor="middle" font-size="10" font-family="Segoe UI, Tahoma, sans-serif" font-weight="400" fill="#333333">4</text><rect x="1059.69" y="456.00" width="14.72" height="84.00" fill="#ff7f0e" rx="2" ry="2" /><text x="1068.05" y="450.00" text-anchor="middle" font-size="10" font-family="Segoe UI, Tahoma, sans-serif" font-weight="400" fill="#333333">4</text><rect x="1076.41" y="456.00" width="14.72" height="84.00" fill="#2ca02c" rx="2" ry="2" /><text x="1084.77" y="450.00" text-anchor="middle" font-size="10" font-family="Segoe UI, Tahoma, sans-serif" font-weight="400" fill="#333333">4</text><rect x="1093.12" y="498.00" width="14.72" height="42.00" fill="#d62728" rx="2" ry="2" /><text x="1101.48" y="492.00" text-anchor="middle" font-size="10" font-family="Segoe UI, Tahoma, sans-serif" font-weight="400" fill="#333333">2</text><rect x="1109.84" y="498.00" width="14.72" height="42.00" fill="#9467bd" rx="2" ry="2" /><text x="1118.20" y="492.00" text-anchor="middle" font-size="10" font-family="Segoe UI, Tahoma, sans-serif" font-weight="400" fill="#333333">2</text><rect x="1126.56" y="498.00" width="14.72" height="42.00" fill="#8c564b" rx="2" ry="2" /><text x="1134.92" y="492.00" text-anchor="middle" font-size="10" font-family="Segoe UI, Tahoma, sans-serif" font-weight="400" fill="#333333">2</text><g transform="translate(1093.12,560.00) rotate(45)"><text x="0.00" y="0.00" text-anchor="start" font-size="12" font-family="Segoe UI, Tahoma, sans-serif" font-weight="400" fill="#333333">pet-clinic</text></g><text x="600.00" y="720.00" text-anchor="middle" font-size="13" font-family="Segoe UI, Tahoma, sans-serif" font-weight="400" fill="#444444">group</text><g transform="translate(28,330.00) rotate(-90)"><text x="0.00" y="0.00" text-anchor="middle" font-size="13" font-family="Segoe UI, Tahoma, sans-serif" font-weight="400" fill="#444444">number_of_microservices</text></g></svg>